<svg width="900" height="420" viewBox="0 0 900 420" fill="none" xmlns="http://www.w3.org/2000/svg">
  <defs>
    <linearGradient id="bg" x1="44" y1="18" x2="856" y2="390" gradientUnits="userSpaceOnUse">
      <stop stop-color="#f5fcff"/>
      <stop offset="1" stop-color="#ebfffa"/>
    </linearGradient>
    <linearGradient id="leftPane" x1="110" y1="86" x2="486" y2="330" gradientUnits="userSpaceOnUse">
      <stop stop-color="#ffffff"/>
      <stop offset="1" stop-color="#f0fdff"/>
    </linearGradient>
    <linearGradient id="rightPane" x1="522" y1="86" x2="792" y2="330" gradientUnits="userSpaceOnUse">
      <stop stop-color="#ffffff"/>
      <stop offset="1" stop-color="#ecfdf5"/>
    </linearGradient>
    <filter id="shadow" x="0" y="0" width="900" height="420" filterUnits="userSpaceOnUse" color-interpolation-filters="sRGB">
      <feDropShadow dx="0" dy="10" stdDeviation="16" flood-color="#0f172a" flood-opacity="0.16"/>
    </filter>
  </defs>

  <rect x="36" y="20" width="828" height="380" rx="28" fill="url(#bg)" stroke="#bfe8f3" stroke-width="2"/>

  <g filter="url(#shadow)">
    <rect x="90" y="70" width="414" height="280" rx="20" fill="url(#leftPane)" stroke="#a5f3fc"/>
    <rect x="520" y="70" width="290" height="280" rx="20" fill="url(#rightPane)" stroke="#86efac"/>
  </g>

  <rect x="106" y="86" width="382" height="24" rx="8" fill="#0e7490"/>
  <text x="120" y="103" fill="#ffffff" font-family="Arial, sans-serif" font-size="12" font-weight="700">INCLUDED BONUS STACK</text>

  <g>
    <rect x="114" y="124" width="366" height="46" rx="10" fill="#ffffff" stroke="#bae6fd"/>
    <circle cx="136" cy="147" r="10" fill="#0284c7"/>
    <path d="M132 147L135 150L141 144" fill="none" stroke="#fff" stroke-width="2" stroke-linecap="round" stroke-linejoin="round"/>
    <text x="156" y="145" fill="#0e7490" font-family="Arial, sans-serif" font-size="13" font-weight="700">Investor Launch Kit</text>
    <text x="156" y="161" fill="#0f766e" font-family="Arial, sans-serif" font-size="11">Pitch deck, one-pager, and demo narrative ready</text>
  </g>

  <g>
    <rect x="114" y="178" width="366" height="46" rx="10" fill="#ffffff" stroke="#bae6fd"/>
    <circle cx="136" cy="201" r="10" fill="#0284c7"/>
    <path d="M132 201L135 204L141 198" fill="none" stroke="#fff" stroke-width="2" stroke-linecap="round" stroke-linejoin="round"/>
    <text x="156" y="199" fill="#0e7490" font-family="Arial, sans-serif" font-size="13" font-weight="700">30-Day Post-Launch Support</text>
    <text x="156" y="215" fill="#0f766e" font-family="Arial, sans-serif" font-size="11">Stability checks, bug fixes, and priority response window</text>
  </g>

  <g>
    <rect x="114" y="232" width="366" height="46" rx="10" fill="#ffffff" stroke="#bae6fd"/>
    <circle cx="136" cy="255" r="10" fill="#0284c7"/>
    <path d="M132 255L135 258L141 252" fill="none" stroke="#fff" stroke-width="2" stroke-linecap="round" stroke-linejoin="round"/>
    <text x="156" y="253" fill="#0e7490" font-family="Arial, sans-serif" font-size="13" font-weight="700">Growth Launch Setup</text>
    <text x="156" y="269" fill="#0f766e" font-family="Arial, sans-serif" font-size="11">Analytics baseline, tracking, and conversion readiness</text>
  </g>

  <g>
    <rect x="114" y="286" width="366" height="46" rx="10" fill="#ffffff" stroke="#bae6fd"/>
    <circle cx="136" cy="309" r="10" fill="#0284c7"/>
    <path d="M132 309L135 312L141 306" fill="none" stroke="#fff" stroke-width="2" stroke-linecap="round" stroke-linejoin="round"/>
    <text x="156" y="307" fill="#0e7490" font-family="Arial, sans-serif" font-size="13" font-weight="700">Full Codebase + Documentation</text>
    <text x="156" y="323" fill="#0f766e" font-family="Arial, sans-serif" font-size="11">Transfer-ready assets with implementation notes</text>
  </g>

  <rect x="538" y="96" width="254" height="68" rx="14" fill="#dcfce7"/>
  <text x="554" y="121" fill="#166534" font-family="Arial, sans-serif" font-size="12" font-weight="700">TOTAL ADDED VALUE</text>
  <text x="554" y="147" fill="#166534" font-family="Arial, sans-serif" font-size="32" font-weight="700">$9,000+</text>

  <rect x="538" y="180" width="254" height="78" rx="14" fill="#ecfeff" stroke="#a5f3fc"/>
  <text x="554" y="206" fill="#0e7490" font-family="Arial, sans-serif" font-size="12" font-weight="700">DELIVERY IMPACT</text>
  <text x="554" y="226" fill="#0e7490" font-family="Arial, sans-serif" font-size="12">Founder-ready launch package</text>
  <text x="554" y="244" fill="#0e7490" font-family="Arial, sans-serif" font-size="12">without extra line-item spend</text>

  <rect x="538" y="274" width="254" height="58" rx="14" fill="#ffffff" stroke="#99f6e4"/>
  <text x="554" y="297" fill="#0f766e" font-family="Arial, sans-serif" font-size="12" font-weight="700">EXECUTION MODE</text>
  <text x="554" y="315" fill="#0f766e" font-family="Arial, sans-serif" font-size="12">Build fast. Launch clean. Own everything.</text>
</svg>
