<svg width="920" height="460" viewBox="0 0 920 460" fill="none" xmlns="http://www.w3.org/2000/svg">
  <defs>
    <linearGradient id="bg" x1="50" y1="26" x2="870" y2="434" gradientUnits="userSpaceOnUse">
      <stop stop-color="#f2fcff"/>
      <stop offset="1" stop-color="#e7fbff"/>
    </linearGradient>
    <linearGradient id="header" x1="120" y1="96" x2="800" y2="96" gradientUnits="userSpaceOnUse">
      <stop stop-color="#0e7490"/>
      <stop offset="1" stop-color="#0d9488"/>
    </linearGradient>
    <filter id="shadow" x="0" y="0" width="920" height="460" filterUnits="userSpaceOnUse" color-interpolation-filters="sRGB">
      <feDropShadow dx="0" dy="16" stdDeviation="18" flood-color="#0f172a" flood-opacity="0.18"/>
    </filter>
  </defs>

  <rect x="38" y="20" width="844" height="420" rx="28" fill="url(#bg)" stroke="#bfe7f2" stroke-width="2"/>

  <g filter="url(#shadow)">
    <rect x="104" y="72" width="712" height="316" rx="20" fill="#ffffff" stroke="#99f6e4"/>
  </g>

  <rect x="120" y="88" width="680" height="28" rx="9" fill="url(#header)"/>
  <text x="142" y="107" fill="#ffffff" font-family="Arial, sans-serif" font-size="12" font-weight="700">SHIP-IT GUARANTEE CERTIFICATE</text>

  <text x="136" y="154" fill="#0f766e" font-family="Arial, sans-serif" font-size="22" font-weight="700">Delivery Commitment</text>
  <text x="136" y="183" fill="#0e7490" font-family="Arial, sans-serif" font-size="15">If your MVP is not ready in 14 days, build continues at no added cost.</text>

  <rect x="136" y="206" width="420" height="70" rx="12" fill="#f0fdfa" stroke="#99f6e4"/>
  <text x="154" y="231" fill="#0f766e" font-family="Arial, sans-serif" font-size="13" font-weight="700">Day 5 Satisfaction Clause</text>
  <text x="154" y="254" fill="#0e7490" font-family="Arial, sans-serif" font-size="13">Not happy by Day 5? Full refund and you keep the designs.</text>

  <rect x="576" y="142" width="208" height="134" rx="16" fill="#ecfeff" stroke="#a5f3fc"/>
  <circle cx="680" cy="196" r="38" fill="#0ea5b5"/>
  <path d="M662 196L674 208L700 182" fill="none" stroke="#ffffff" stroke-width="6" stroke-linecap="round" stroke-linejoin="round"/>
  <text x="610" y="252" fill="#0f766e" font-family="Arial, sans-serif" font-size="12" font-weight="700">VERIFIED EXECUTION</text>

  <rect x="136" y="296" width="648" height="58" rx="12" fill="#f8fafc" stroke="#c7e8f3"/>
  <text x="154" y="321" fill="#0e7490" font-family="Arial, sans-serif" font-size="13" font-weight="700">Scope</text>
  <text x="154" y="340" fill="#0e7490" font-family="Arial, sans-serif" font-size="12">Core MVP features, launch-ready workflow, and deployment support.</text>

  <rect x="700" y="298" width="84" height="54" rx="10" fill="#dcfce7"/>
  <text x="718" y="321" fill="#166534" font-family="Arial, sans-serif" font-size="16" font-weight="700">14</text>
  <text x="709" y="338" fill="#166534" font-family="Arial, sans-serif" font-size="11" font-weight="700">DAYS</text>
</svg>
