<svg width="960" height="360" viewBox="0 0 960 360" fill="none" xmlns="http://www.w3.org/2000/svg">
  <defs>
    <linearGradient id="canvas" x1="60" y1="24" x2="900" y2="336" gradientUnits="userSpaceOnUse">
      <stop stop-color="#f8fbff"/>
      <stop offset="1" stop-color="#eefbff"/>
    </linearGradient>
    <linearGradient id="leftHdr" x1="102" y1="68" x2="458" y2="68" gradientUnits="userSpaceOnUse">
      <stop stop-color="#991b1b"/>
      <stop offset="1" stop-color="#dc2626"/>
    </linearGradient>
    <linearGradient id="rightHdr" x1="502" y1="68" x2="858" y2="68" gradientUnits="userSpaceOnUse">
      <stop stop-color="#0e7490"/>
      <stop offset="1" stop-color="#14b8a6"/>
    </linearGradient>
    <filter id="panelShadow" x="0" y="0" width="960" height="360" filterUnits="userSpaceOnUse" color-interpolation-filters="sRGB">
      <feDropShadow dx="0" dy="12" stdDeviation="14" flood-color="#0f172a" flood-opacity="0.18"/>
    </filter>
  </defs>

  <rect x="36" y="22" width="888" height="316" rx="24" fill="url(#canvas)" stroke="#c7e8f3" stroke-width="2"/>

  <g filter="url(#panelShadow)">
    <rect x="94" y="48" width="366" height="250" rx="18" fill="#ffffff" stroke="#fecaca"/>
    <rect x="500" y="48" width="366" height="250" rx="18" fill="#ffffff" stroke="#99f6e4"/>
  </g>

  <rect x="102" y="56" width="350" height="24" rx="8" fill="url(#leftHdr)"/>
  <rect x="508" y="56" width="350" height="24" rx="8" fill="url(#rightHdr)"/>

  <text x="116" y="73" fill="#ffffff" font-family="Arial, sans-serif" font-size="12" font-weight="700">TRADITIONAL DEVELOPMENT</text>
  <text x="522" y="73" fill="#ffffff" font-family="Arial, sans-serif" font-size="12" font-weight="700">MVP SPRINT DELIVERY</text>

  <text x="116" y="106" fill="#b91c1c" font-family="Arial, sans-serif" font-size="13" font-weight="700">Cost Creep</text>
  <rect x="116" y="114" width="322" height="12" rx="6" fill="#ffe4e6"/>
  <rect x="116" y="114" width="274" height="12" rx="6" fill="#f87171"/>

  <text x="116" y="148" fill="#b91c1c" font-family="Arial, sans-serif" font-size="13" font-weight="700">Timeline Drag</text>
  <rect x="116" y="156" width="322" height="12" rx="6" fill="#ffe4e6"/>
  <rect x="116" y="156" width="292" height="12" rx="6" fill="#ef4444"/>

  <text x="116" y="190" fill="#b91c1c" font-family="Arial, sans-serif" font-size="13" font-weight="700">ROI Delay</text>
  <rect x="116" y="198" width="322" height="12" rx="6" fill="#ffe4e6"/>
  <rect x="116" y="198" width="248" height="12" rx="6" fill="#fb7185"/>

  <rect x="116" y="226" width="322" height="50" rx="10" fill="#fff5f5" stroke="#fecaca"/>
  <text x="130" y="246" fill="#991b1b" font-family="Arial, sans-serif" font-size="12" font-weight="700">Avg Outcome</text>
  <text x="130" y="264" fill="#b91c1c" font-family="Arial, sans-serif" font-size="12">Late launch, high burn, weak momentum</text>

  <text x="522" y="106" fill="#0f766e" font-family="Arial, sans-serif" font-size="13" font-weight="700">Scope Control</text>
  <rect x="522" y="114" width="322" height="12" rx="6" fill="#dcfce7"/>
  <rect x="522" y="114" width="278" height="12" rx="6" fill="#2dd4bf"/>

  <text x="522" y="148" fill="#0f766e" font-family="Arial, sans-serif" font-size="13" font-weight="700">Speed to Launch</text>
  <rect x="522" y="156" width="322" height="12" rx="6" fill="#dcfce7"/>
  <rect x="522" y="156" width="302" height="12" rx="6" fill="#22d3ee"/>

  <text x="522" y="190" fill="#0f766e" font-family="Arial, sans-serif" font-size="13" font-weight="700">ROI Acceleration</text>
  <rect x="522" y="198" width="322" height="12" rx="6" fill="#dcfce7"/>
  <rect x="522" y="198" width="286" height="12" rx="6" fill="#14b8a6"/>

  <rect x="522" y="226" width="322" height="50" rx="10" fill="#f0fdfa" stroke="#99f6e4"/>
  <text x="536" y="246" fill="#0f766e" font-family="Arial, sans-serif" font-size="12" font-weight="700">Avg Outcome</text>
  <text x="536" y="264" fill="#0f766e" font-family="Arial, sans-serif" font-size="12">Live MVP in 14 days with measurable traction</text>

  <path d="M460 174H500" stroke="#06b6d4" stroke-width="4" stroke-linecap="round"/>
  <path d="M490 162L502 174L490 186" fill="none" stroke="#06b6d4" stroke-width="4" stroke-linecap="round" stroke-linejoin="round"/>

  <rect x="346" y="304" width="268" height="22" rx="11" fill="#e0f2fe"/>
  <text x="392" y="319" fill="#0e7490" font-family="Arial, sans-serif" font-size="12" font-weight="700">From Cost Sink to Growth Asset</text>
</svg>
