<svg width="920" height="620" viewBox="0 0 920 620" fill="none" xmlns="http://www.w3.org/2000/svg">
  <defs>
    <linearGradient id="bg" x1="60" y1="40" x2="860" y2="560" gradientUnits="userSpaceOnUse">
      <stop stop-color="#ECFEFF"/>
      <stop offset="1" stop-color="#E6F6FF"/>
    </linearGradient>
    <linearGradient id="ok" x1="190" y1="174" x2="430" y2="420" gradientUnits="userSpaceOnUse">
      <stop stop-color="#ECFDF5"/>
      <stop offset="1" stop-color="#D1FAE5"/>
    </linearGradient>
    <linearGradient id="no" x1="500" y1="174" x2="736" y2="420" gradientUnits="userSpaceOnUse">
      <stop stop-color="#FFF1F2"/>
      <stop offset="1" stop-color="#FFE4E6"/>
    </linearGradient>
    <filter id="soft" x="0" y="0" width="920" height="620" filterUnits="userSpaceOnUse" color-interpolation-filters="sRGB">
      <feGaussianBlur stdDeviation="20"/>
    </filter>
  </defs>

  <rect x="52" y="44" width="816" height="532" rx="44" fill="url(#bg)"/>

  <g filter="url(#soft)" opacity="0.42">
    <circle cx="232" cy="146" r="86" fill="#34D399"/>
    <circle cx="694" cy="478" r="96" fill="#22D3EE"/>
  </g>

  <rect x="120" y="126" width="308" height="366" rx="26" fill="url(#ok)" stroke="#86EFAC" stroke-width="3"/>
  <rect x="492" y="126" width="308" height="366" rx="26" fill="url(#no)" stroke="#FDA4AF" stroke-width="3"/>

  <rect x="150" y="162" width="248" height="54" rx="14" fill="#16A34A" opacity="0.12"/>
  <circle cx="182" cy="189" r="13" fill="#16A34A"/>
  <path d="M176 189L181 194L189 184" stroke="white" stroke-width="3" stroke-linecap="round" stroke-linejoin="round"/>
  <text x="208" y="194" fill="#166534" font-family="Arial, sans-serif" font-size="18" font-weight="700">Good Fit</text>

  <rect x="522" y="162" width="248" height="54" rx="14" fill="#E11D48" opacity="0.12"/>
  <circle cx="554" cy="189" r="13" fill="#E11D48"/>
  <path d="M549 184L559 194M559 184L549 194" stroke="white" stroke-width="3" stroke-linecap="round"/>
  <text x="580" y="194" fill="#9F1239" font-family="Arial, sans-serif" font-size="18" font-weight="700">Not Ready</text>

  <g fill="#166534" font-family="Arial, sans-serif" font-size="16">
    <text x="168" y="262">Clear product direction</text>
    <text x="168" y="306">Urgent launch mindset</text>
    <text x="168" y="350">Budget allocated</text>
  </g>

  <g fill="#9F1239" font-family="Arial, sans-serif" font-size="16">
    <text x="540" y="262">Just exploring</text>
    <text x="540" y="306">No timeline</text>
    <text x="540" y="350">No budget</text>
  </g>

  <g>
    <circle cx="146" cy="256" r="10" fill="#22C55E"/>
    <path d="M141 256L145 260L151 252" stroke="white" stroke-width="2.4" stroke-linecap="round" stroke-linejoin="round"/>

    <circle cx="146" cy="300" r="10" fill="#22C55E"/>
    <path d="M141 300L145 304L151 296" stroke="white" stroke-width="2.4" stroke-linecap="round" stroke-linejoin="round"/>

    <circle cx="146" cy="344" r="10" fill="#22C55E"/>
    <path d="M141 344L145 348L151 340" stroke="white" stroke-width="2.4" stroke-linecap="round" stroke-linejoin="round"/>
  </g>

  <g>
    <circle cx="518" cy="256" r="10" fill="#EF4444"/>
    <path d="M514 252L522 260M522 252L514 260" stroke="white" stroke-width="2.4" stroke-linecap="round"/>

    <circle cx="518" cy="300" r="10" fill="#EF4444"/>
    <path d="M514 296L522 304M522 296L514 304" stroke="white" stroke-width="2.4" stroke-linecap="round"/>

    <circle cx="518" cy="344" r="10" fill="#EF4444"/>
    <path d="M514 340L522 348M522 340L514 348" stroke="white" stroke-width="2.4" stroke-linecap="round"/>
  </g>

  <rect x="208" y="432" width="504" height="42" rx="21" fill="#0F766E" opacity="0.08"/>
  <text x="290" y="459" fill="#0F766E" font-family="Arial, sans-serif" font-size="18" font-weight="700">Move with urgency. Launch with confidence.</text>
</svg>
