<svg width="420" height="300" viewBox="0 0 420 300" fill="none" xmlns="http://www.w3.org/2000/svg">
  <defs>
    <linearGradient id="scene" x1="20" y1="14" x2="400" y2="286" gradientUnits="userSpaceOnUse">
      <stop stop-color="#f8fbff"/>
      <stop offset="1" stop-color="#eefcff"/>
    </linearGradient>
    <linearGradient id="leftBand" x1="42" y1="56" x2="190" y2="56" gradientUnits="userSpaceOnUse">
      <stop stop-color="#991b1b"/>
      <stop offset="1" stop-color="#ef4444"/>
    </linearGradient>
    <linearGradient id="rightBand" x1="230" y1="56" x2="378" y2="56" gradientUnits="userSpaceOnUse">
      <stop stop-color="#0e7490"/>
      <stop offset="1" stop-color="#14b8a6"/>
    </linearGradient>
  </defs>

  <rect x="12" y="12" width="396" height="276" rx="20" fill="url(#scene)" stroke="#cbe9f4" stroke-width="2"/>

  <rect x="34" y="40" width="164" height="202" rx="14" fill="#ffffff" stroke="#fecaca"/>
  <rect x="222" y="40" width="164" height="202" rx="14" fill="#ffffff" stroke="#99f6e4"/>

  <rect x="42" y="48" width="148" height="16" rx="6" fill="url(#leftBand)"/>
  <rect x="230" y="48" width="148" height="16" rx="6" fill="url(#rightBand)"/>
  <text x="50" y="60" fill="#ffffff" font-family="Arial, sans-serif" font-size="8.5" font-weight="700">CURRENT STATE</text>
  <text x="238" y="60" fill="#ffffff" font-family="Arial, sans-serif" font-size="8.5" font-weight="700">TARGET STATE</text>

  <rect x="46" y="76" width="140" height="24" rx="6" fill="#fff1f2"/>
  <rect x="46" y="106" width="140" height="24" rx="6" fill="#fff1f2"/>
  <rect x="46" y="136" width="140" height="24" rx="6" fill="#fff1f2"/>
  <rect x="46" y="166" width="140" height="24" rx="6" fill="#fff1f2"/>

  <rect x="234" y="76" width="140" height="24" rx="6" fill="#ecfdf5"/>
  <rect x="234" y="106" width="140" height="24" rx="6" fill="#ecfdf5"/>
  <rect x="234" y="136" width="140" height="24" rx="6" fill="#ecfdf5"/>
  <rect x="234" y="166" width="140" height="24" rx="6" fill="#ecfdf5"/>

  <circle cx="58" cy="88" r="5" fill="#dc2626"/>
  <path d="M56 86L60 90M60 86L56 90" stroke="#fff" stroke-width="1.6" stroke-linecap="round"/>
  <circle cx="58" cy="118" r="5" fill="#dc2626"/>
  <path d="M56 116L60 120M60 116L56 120" stroke="#fff" stroke-width="1.6" stroke-linecap="round"/>
  <circle cx="58" cy="148" r="5" fill="#dc2626"/>
  <path d="M56 146L60 150M60 146L56 150" stroke="#fff" stroke-width="1.6" stroke-linecap="round"/>
  <circle cx="58" cy="178" r="5" fill="#dc2626"/>
  <path d="M56 176L60 180M60 176L56 180" stroke="#fff" stroke-width="1.6" stroke-linecap="round"/>

  <circle cx="246" cy="88" r="5" fill="#059669"/>
  <path d="M244 88L246 90L250 86" fill="none" stroke="#fff" stroke-width="1.6" stroke-linecap="round" stroke-linejoin="round"/>
  <circle cx="246" cy="118" r="5" fill="#059669"/>
  <path d="M244 118L246 120L250 116" fill="none" stroke="#fff" stroke-width="1.6" stroke-linecap="round" stroke-linejoin="round"/>
  <circle cx="246" cy="148" r="5" fill="#059669"/>
  <path d="M244 148L246 150L250 146" fill="none" stroke="#fff" stroke-width="1.6" stroke-linecap="round" stroke-linejoin="round"/>
  <circle cx="246" cy="178" r="5" fill="#059669"/>
  <path d="M244 178L246 180L250 176" fill="none" stroke="#fff" stroke-width="1.6" stroke-linecap="round" stroke-linejoin="round"/>

  <path d="M192 141H222" stroke="#06b6d4" stroke-width="3.4" stroke-linecap="round"/>
  <path d="M214 133L222 141L214 149" fill="none" stroke="#06b6d4" stroke-width="3.4" stroke-linecap="round" stroke-linejoin="round"/>

  <rect x="96" y="252" width="228" height="22" rx="11" fill="#e0f2fe"/>
  <text x="124" y="267" fill="#0e7490" font-family="Arial, sans-serif" font-size="11" font-weight="700">Move from delays to launch confidence</text>
</svg>
