<svg width="1280" height="800" viewBox="0 0 1280 800" xmlns="http://www.w3.org/2000/svg">
  <defs>
    <linearGradient id="hero" x1="0" y1="0" x2="1" y2="1">
      <stop offset="0%" stop-color="#ebfdff"/>
      <stop offset="100%" stop-color="#dff8ff"/>
    </linearGradient>
  </defs>
  <rect width="1280" height="800" fill="#ffffff"/>
  <rect x="0" y="0" width="1280" height="74" fill="#f8fdff"/>
  <text x="40" y="47" fill="#0b6b7e" font-size="30" font-family="Arial, sans-serif" font-weight="700">Nova Commerce</text>
  <rect x="360" y="22" width="420" height="32" rx="16" fill="#ecf8fb"/>
  <text x="388" y="43" fill="#6a98a3" font-size="14" font-family="Arial, sans-serif">Search products, brands, collections</text>
  <rect x="1086" y="18" width="160" height="38" rx="10" fill="#0ea5b8"/>
  <text x="1143" y="43" fill="#ffffff" font-size="15" font-family="Arial, sans-serif" font-weight="700">Checkout</text>

  <rect x="40" y="98" width="1200" height="208" rx="18" fill="url(#hero)"/>
  <text x="88" y="166" fill="#0b6b7e" font-size="22" font-family="Arial, sans-serif">Spring launch sale</text>
  <text x="88" y="226" fill="#0a8ca3" font-size="56" font-family="Arial, sans-serif" font-weight="700">Up to 55% Off</text>
  <rect x="88" y="244" width="170" height="42" rx="21" fill="#0ea5b8"/>
  <text x="136" y="271" fill="#ffffff" font-size="16" font-family="Arial, sans-serif" font-weight="700">Shop now</text>

  <text x="40" y="360" fill="#0b6b7e" font-size="30" font-family="Arial, sans-serif" font-weight="700">Top products</text>
  <g transform="translate(40,390)">
    <rect x="0" y="0" width="280" height="360" rx="16" fill="#ffffff" stroke="#d4edf2"/>
    <rect x="22" y="20" width="236" height="190" rx="12" fill="#eef9fc"/>
    <circle cx="140" cy="116" r="62" fill="#bbecf4"/>
    <rect x="86" y="86" width="108" height="66" rx="14" fill="#0ea5b8" opacity="0.25"/>
    <text x="22" y="250" fill="#0b6b7e" font-size="20" font-family="Arial, sans-serif" font-weight="700">Smart Desk Lamp</text>
    <text x="22" y="280" fill="#6a98a3" font-size="16" font-family="Arial, sans-serif">AI adaptive brightness</text>
    <text x="22" y="326" fill="#0a8ca3" font-size="30" font-family="Arial, sans-serif" font-weight="700">$149</text>
    <rect x="162" y="300" width="96" height="36" rx="18" fill="#0ea5b8"/>
    <text x="191" y="323" fill="#ffffff" font-size="14" font-family="Arial, sans-serif" font-weight="700">Add</text>
  </g>
  <g transform="translate(350,390)">
    <rect x="0" y="0" width="280" height="360" rx="16" fill="#ffffff" stroke="#d4edf2"/>
    <rect x="22" y="20" width="236" height="190" rx="12" fill="#eef9fc"/>
    <circle cx="140" cy="116" r="62" fill="#bbecf4"/>
    <rect x="96" y="78" width="88" height="76" rx="18" fill="#0ea5b8" opacity="0.24"/>
    <text x="22" y="250" fill="#0b6b7e" font-size="20" font-family="Arial, sans-serif" font-weight="700">Travel Backpack</text>
    <text x="22" y="280" fill="#6a98a3" font-size="16" font-family="Arial, sans-serif">Weatherproof 32L</text>
    <text x="22" y="326" fill="#0a8ca3" font-size="30" font-family="Arial, sans-serif" font-weight="700">$89</text>
    <rect x="162" y="300" width="96" height="36" rx="18" fill="#0ea5b8"/>
    <text x="191" y="323" fill="#ffffff" font-size="14" font-family="Arial, sans-serif" font-weight="700">Add</text>
  </g>
  <g transform="translate(660,390)">
    <rect x="0" y="0" width="280" height="360" rx="16" fill="#ffffff" stroke="#d4edf2"/>
    <rect x="22" y="20" width="236" height="190" rx="12" fill="#eef9fc"/>
    <circle cx="140" cy="116" r="62" fill="#bbecf4"/>
    <rect x="92" y="82" width="96" height="68" rx="20" fill="#0ea5b8" opacity="0.24"/>
    <text x="22" y="250" fill="#0b6b7e" font-size="20" font-family="Arial, sans-serif" font-weight="700">Noise Cancelling</text>
    <text x="22" y="280" fill="#6a98a3" font-size="16" font-family="Arial, sans-serif">Hybrid ANC Headphones</text>
    <text x="22" y="326" fill="#0a8ca3" font-size="30" font-family="Arial, sans-serif" font-weight="700">$219</text>
    <rect x="162" y="300" width="96" height="36" rx="18" fill="#0ea5b8"/>
    <text x="191" y="323" fill="#ffffff" font-size="14" font-family="Arial, sans-serif" font-weight="700">Add</text>
  </g>
  <g transform="translate(970,390)">
    <rect x="0" y="0" width="270" height="360" rx="16" fill="#ffffff" stroke="#d4edf2"/>
    <text x="24" y="44" fill="#0b6b7e" font-size="20" font-family="Arial, sans-serif" font-weight="700">Cart</text>
    <rect x="24" y="64" width="222" height="82" rx="12" fill="#eef9fc"/>
    <rect x="24" y="156" width="222" height="82" rx="12" fill="#eef9fc"/>
    <rect x="24" y="248" width="222" height="82" rx="12" fill="#eef9fc"/>
    <text x="24" y="352" fill="#0b6b7e" font-size="16" font-family="Arial, sans-serif">Subtotal</text>
    <text x="182" y="352" fill="#0a8ca3" font-size="22" font-family="Arial, sans-serif" font-weight="700">$457</text>
  </g>
</svg>