<svg width="1024" height="1365" viewBox="0 0 1024 1365" xmlns="http://www.w3.org/2000/svg">
  <rect width="1024" height="1365" fill="#f7fdff"/>
  <rect x="0" y="0" width="1024" height="96" fill="#0ea5b8"/>
  <text x="40" y="62" fill="#ffffff" font-size="38" font-family="Arial, sans-serif" font-weight="700">LearnHub</text>

  <rect x="34" y="126" width="956" height="170" rx="18" fill="#ffffff" stroke="#d7eef3"/>
  <text x="72" y="186" fill="#0b6b7e" font-size="34" font-family="Arial, sans-serif" font-weight="700">Your Learning Path</text>
  <rect x="72" y="212" width="880" height="26" rx="13" fill="#e7f7fb"/>
  <rect x="72" y="212" width="630" height="26" rx="13" fill="#0ea5b8"/>
  <text x="724" y="234" fill="#0b6b7e" font-size="22" font-family="Arial, sans-serif">72%</text>

  <rect x="34" y="326" width="956" height="214" rx="18" fill="#ffffff" stroke="#d7eef3"/>
  <text x="72" y="384" fill="#0b6b7e" font-size="30" font-family="Arial, sans-serif" font-weight="700">Full Stack Product Build</text>
  <text x="72" y="426" fill="#5e8c98" font-size="24" font-family="Arial, sans-serif">React, Node, cloud deployment</text>
  <rect x="72" y="456" width="760" height="22" rx="11" fill="#e7f7fb"/>
  <rect x="72" y="456" width="622" height="22" rx="11" fill="#0ea5b8"/>
  <rect x="844" y="440" width="108" height="44" rx="22" fill="#0ea5b8"/>
  <text x="872" y="468" fill="#ffffff" font-size="20" font-family="Arial, sans-serif" font-weight="700">Live</text>

  <rect x="34" y="560" width="956" height="214" rx="18" fill="#ffffff" stroke="#d7eef3"/>
  <text x="72" y="618" fill="#0b6b7e" font-size="30" font-family="Arial, sans-serif" font-weight="700">Product Analytics</text>
  <text x="72" y="660" fill="#5e8c98" font-size="24" font-family="Arial, sans-serif">Activation, retention, cohort analysis</text>
  <rect x="72" y="690" width="760" height="22" rx="11" fill="#e7f7fb"/>
  <rect x="72" y="690" width="520" height="22" rx="11" fill="#0ea5b8"/>
  <rect x="844" y="674" width="108" height="44" rx="22" fill="#0ea5b8"/>
  <text x="868" y="702" fill="#ffffff" font-size="20" font-family="Arial, sans-serif" font-weight="700">In Pro</text>

  <rect x="34" y="794" width="956" height="214" rx="18" fill="#ffffff" stroke="#d7eef3"/>
  <text x="72" y="852" fill="#0b6b7e" font-size="30" font-family="Arial, sans-serif" font-weight="700">Growth Experiments</text>
  <text x="72" y="894" fill="#5e8c98" font-size="24" font-family="Arial, sans-serif">Landing page tests, email automations</text>
  <rect x="72" y="924" width="760" height="22" rx="11" fill="#e7f7fb"/>
  <rect x="72" y="924" width="430" height="22" rx="11" fill="#0ea5b8"/>
  <rect x="844" y="908" width="108" height="44" rx="22" fill="#0ea5b8"/>
  <text x="875" y="936" fill="#ffffff" font-size="20" font-family="Arial, sans-serif" font-weight="700">Soon</text>
</svg>