<svg width="900" height="1600" viewBox="0 0 900 1600" xmlns="http://www.w3.org/2000/svg">
  <rect width="900" height="1600" fill="#f6fcff"/>
  <rect x="0" y="0" width="900" height="120" fill="#0ea5b8"/>
  <text x="48" y="76" fill="#ffffff" font-size="44" font-family="Arial, sans-serif" font-weight="700">CareFlow</text>
  <rect x="48" y="152" width="804" height="200" rx="22" fill="#ffffff" stroke="#d7eef3"/>
  <text x="84" y="214" fill="#0b6b7e" font-size="34" font-family="Arial, sans-serif" font-weight="700">Welcome back, Dr. Rivera</text>
  <text x="84" y="262" fill="#5e8c98" font-size="28" font-family="Arial, sans-serif">You have 12 appointments today</text>
  <rect x="624" y="188" width="194" height="64" rx="32" fill="#0ea5b8"/>
  <text x="680" y="228" fill="#ffffff" font-size="24" font-family="Arial, sans-serif" font-weight="700">View All</text>

  <text x="48" y="430" fill="#0b6b7e" font-size="36" font-family="Arial, sans-serif" font-weight="700">Patient Vitals</text>
  <rect x="48" y="458" width="388" height="230" rx="20" fill="#ffffff" stroke="#d7eef3"/>
  <rect x="464" y="458" width="388" height="230" rx="20" fill="#ffffff" stroke="#d7eef3"/>
  <text x="84" y="530" fill="#0c7e90" font-size="26" font-family="Arial, sans-serif">Heart Rate</text>
  <text x="84" y="596" fill="#ef4444" font-size="52" font-family="Arial, sans-serif" font-weight="700">72 bpm</text>
  <text x="500" y="530" fill="#0c7e90" font-size="26" font-family="Arial, sans-serif">Blood Pressure</text>
  <text x="500" y="596" fill="#0a8ca3" font-size="52" font-family="Arial, sans-serif" font-weight="700">120 / 80</text>

  <text x="48" y="780" fill="#0b6b7e" font-size="36" font-family="Arial, sans-serif" font-weight="700">Upcoming Visits</text>
  <rect x="48" y="818" width="804" height="124" rx="18" fill="#ffffff" stroke="#d7eef3"/>
  <rect x="48" y="962" width="804" height="124" rx="18" fill="#ffffff" stroke="#d7eef3"/>
  <rect x="48" y="1106" width="804" height="124" rx="18" fill="#ffffff" stroke="#d7eef3"/>
  <text x="86" y="888" fill="#0b6b7e" font-size="30" font-family="Arial, sans-serif" font-weight="700">John Carter</text>
  <text x="86" y="922" fill="#5e8c98" font-size="24" font-family="Arial, sans-serif">10:00 AM - Follow up</text>
  <text x="86" y="1032" fill="#0b6b7e" font-size="30" font-family="Arial, sans-serif" font-weight="700">Aisha Malik</text>
  <text x="86" y="1066" fill="#5e8c98" font-size="24" font-family="Arial, sans-serif">11:30 AM - Lab review</text>
  <text x="86" y="1176" fill="#0b6b7e" font-size="30" font-family="Arial, sans-serif" font-weight="700">Tom Benson</text>
  <text x="86" y="1210" fill="#5e8c98" font-size="24" font-family="Arial, sans-serif">2:00 PM - New consultation</text>

  <rect x="0" y="1480" width="900" height="120" fill="#ffffff"/>
  <circle cx="164" cy="1540" r="14" fill="#0ea5b8"/>
  <circle cx="350" cy="1540" r="14" fill="#c6e9f0"/>
  <circle cx="536" cy="1540" r="14" fill="#c6e9f0"/>
  <circle cx="722" cy="1540" r="14" fill="#c6e9f0"/>
</svg>