<svg width="1024" height="1365" viewBox="0 0 1024 1365" xmlns="http://www.w3.org/2000/svg">
  <defs>
    <linearGradient id="hero" x1="0" y1="0" x2="1" y2="1">
      <stop offset="0%" stop-color="#0ea5b8"/>
      <stop offset="100%" stop-color="#097c90"/>
    </linearGradient>
  </defs>
  <rect width="1024" height="1365" fill="#f8fdff"/>
  <rect x="34" y="34" width="956" height="340" rx="22" fill="url(#hero)"/>
  <text x="88" y="128" fill="#ffffff" font-size="52" font-family="Arial, sans-serif" font-weight="700">Series Seed Deck</text>
  <text x="88" y="186" fill="#d9f7fc" font-size="30" font-family="Arial, sans-serif">AI workflow platform for operations teams</text>
  <text x="88" y="248" fill="#ffffff" font-size="84" font-family="Arial, sans-serif" font-weight="700">$2.5M</text>
  <text x="88" y="294" fill="#d9f7fc" font-size="28" font-family="Arial, sans-serif">raising at $18M pre-money</text>

  <rect x="34" y="400" width="300" height="220" rx="18" fill="#ffffff" stroke="#d7eef3"/>
  <rect x="362" y="400" width="300" height="220" rx="18" fill="#ffffff" stroke="#d7eef3"/>
  <rect x="690" y="400" width="300" height="220" rx="18" fill="#ffffff" stroke="#d7eef3"/>
  <text x="74" y="466" fill="#0b6b7e" font-size="22" font-family="Arial, sans-serif">ARR</text>
  <text x="74" y="546" fill="#0a8ca3" font-size="56" font-family="Arial, sans-serif" font-weight="700">$1.1M</text>
  <text x="402" y="466" fill="#0b6b7e" font-size="22" font-family="Arial, sans-serif">Growth</text>
  <text x="402" y="546" fill="#0a8ca3" font-size="56" font-family="Arial, sans-serif" font-weight="700">14% MoM</text>
  <text x="730" y="466" fill="#0b6b7e" font-size="22" font-family="Arial, sans-serif">Net Revenue</text>
  <text x="730" y="546" fill="#0a8ca3" font-size="56" font-family="Arial, sans-serif" font-weight="700">122%</text>

  <rect x="34" y="648" width="956" height="300" rx="18" fill="#ffffff" stroke="#d7eef3"/>
  <text x="74" y="706" fill="#0b6b7e" font-size="30" font-family="Arial, sans-serif" font-weight="700">Market Traction</text>
  <polyline points="90,882 170,854 250,826 330,780 410,752 490,718 570,684 650,640 730,610 810,560 900,520" fill="none" stroke="#0ea5b8" stroke-width="10" stroke-linecap="round"/>
  <polyline points="90,882 170,854 250,826 330,780 410,752 490,718 570,684 650,640 730,610 810,560 900,520 900,920 90,920" fill="#0ea5b8" opacity="0.12"/>

  <rect x="34" y="974" width="956" height="356" rx="18" fill="#ffffff" stroke="#d7eef3"/>
  <text x="74" y="1032" fill="#0b6b7e" font-size="30" font-family="Arial, sans-serif" font-weight="700">Milestones</text>
  <rect x="74" y="1060" width="876" height="70" rx="12" fill="#eef9fc"/>
  <rect x="74" y="1146" width="876" height="70" rx="12" fill="#eef9fc"/>
  <rect x="74" y="1232" width="876" height="70" rx="12" fill="#eef9fc"/>
  <text x="106" y="1104" fill="#0c7e90" font-size="24" font-family="Arial, sans-serif">Q2 - Enterprise launch with SOC2</text>
  <text x="106" y="1190" fill="#0c7e90" font-size="24" font-family="Arial, sans-serif">Q3 - Expand into APAC market</text>
  <text x="106" y="1276" fill="#0c7e90" font-size="24" font-family="Arial, sans-serif">Q4 - Reach $3M ARR</text>
</svg>