<svg width="1280" height="800" viewBox="0 0 1280 800" xmlns="http://www.w3.org/2000/svg">
  <defs>
    <linearGradient id="g1" x1="0" y1="0" x2="1" y2="1">
      <stop offset="0%" stop-color="#f2fdff"/>
      <stop offset="100%" stop-color="#ddf6fb"/>
    </linearGradient>
  </defs>
  <rect width="1280" height="800" fill="#ffffff"/>
  <rect x="0" y="0" width="1280" height="76" fill="#ffffff"/>
  <text x="44" y="48" fill="#0b6b7e" font-size="30" font-family="Arial, sans-serif" font-weight="700">MVP Sprint Studio</text>
  <rect x="1008" y="20" width="212" height="38" rx="19" fill="#0ea5b8"/>
  <text x="1072" y="44" fill="#ffffff" font-size="15" font-family="Arial, sans-serif" font-weight="700">Book Call</text>

  <rect x="40" y="104" width="1200" height="310" rx="22" fill="url(#g1)"/>
  <text x="90" y="182" fill="#0b6b7e" font-size="26" font-family="Arial, sans-serif">Build and launch in two weeks</text>
  <text x="90" y="266" fill="#0a8ca3" font-size="66" font-family="Arial, sans-serif" font-weight="700">Product from idea</text>
  <text x="90" y="338" fill="#0a8ca3" font-size="66" font-family="Arial, sans-serif" font-weight="700">to paying users</text>
  <rect x="90" y="358" width="186" height="44" rx="22" fill="#0ea5b8"/>
  <text x="138" y="386" fill="#ffffff" font-size="16" font-family="Arial, sans-serif" font-weight="700">Start now</text>

  <text x="40" y="480" fill="#0b6b7e" font-size="28" font-family="Arial, sans-serif" font-weight="700">Trusted by operators</text>
  <rect x="40" y="506" width="1200" height="250" rx="18" fill="#ffffff" stroke="#d7eef3"/>
  <rect x="70" y="542" width="360" height="170" rx="14" fill="#eef9fc"/>
  <rect x="460" y="542" width="360" height="170" rx="14" fill="#eef9fc"/>
  <rect x="850" y="542" width="360" height="170" rx="14" fill="#eef9fc"/>
  <text x="98" y="594" fill="#0c7e90" font-size="20" font-family="Arial, sans-serif" font-weight="700">SaaS Monitoring Platform</text>
  <text x="98" y="634" fill="#5e8c98" font-size="16" font-family="Arial, sans-serif">Launched in 11 days</text>
  <text x="488" y="594" fill="#0c7e90" font-size="20" font-family="Arial, sans-serif" font-weight="700">Marketplace MVP</text>
  <text x="488" y="634" fill="#5e8c98" font-size="16" font-family="Arial, sans-serif">Reached first 100 users</text>
  <text x="878" y="594" fill="#0c7e90" font-size="20" font-family="Arial, sans-serif" font-weight="700">CareOps Dashboard</text>
  <text x="878" y="634" fill="#5e8c98" font-size="16" font-family="Arial, sans-serif">Onboarded 4 clinics</text>
</svg>