<svg width="1280" height="800" viewBox="0 0 1280 800" xmlns="http://www.w3.org/2000/svg">
  <defs>
    <linearGradient id="bg" x1="0" y1="0" x2="1" y2="1">
      <stop offset="0%" stop-color="#f8fdff"/>
      <stop offset="100%" stop-color="#ecfbff"/>
    </linearGradient>
    <linearGradient id="panel" x1="0" y1="0" x2="0" y2="1">
      <stop offset="0%" stop-color="#0ea5b8"/>
      <stop offset="100%" stop-color="#0a8ca3"/>
    </linearGradient>
  </defs>
  <rect width="1280" height="800" fill="url(#bg)"/>
  <rect x="0" y="0" width="1280" height="64" fill="url(#panel)"/>
  <text x="38" y="42" fill="#ffffff" font-size="28" font-family="Arial, sans-serif" font-weight="700">PulseBoard</text>
  <rect x="940" y="18" width="110" height="30" rx="15" fill="#ffffff" opacity="0.2"/>
  <rect x="1068" y="18" width="170" height="30" rx="15" fill="#ffffff"/>
  <text x="1122" y="38" fill="#0a8ca3" font-size="14" font-family="Arial, sans-serif" font-weight="700">Export Report</text>

  <rect x="24" y="88" width="232" height="688" rx="16" fill="#ffffff" stroke="#d5eef3"/>
  <text x="52" y="132" fill="#0c6c7d" font-size="20" font-family="Arial, sans-serif" font-weight="700">Workspace</text>
  <rect x="44" y="158" width="192" height="44" rx="10" fill="#0ea5b8"/>
  <text x="68" y="186" fill="#ffffff" font-size="16" font-family="Arial, sans-serif" font-weight="700">Overview</text>
  <rect x="44" y="216" width="192" height="38" rx="10" fill="#eef9fc"/>
  <rect x="44" y="264" width="192" height="38" rx="10" fill="#eef9fc"/>
  <rect x="44" y="312" width="192" height="38" rx="10" fill="#eef9fc"/>

  <rect x="280" y="88" width="976" height="170" rx="16" fill="#ffffff" stroke="#d5eef3"/>
  <text x="316" y="128" fill="#0c6c7d" font-size="20" font-family="Arial, sans-serif" font-weight="700">Revenue Snapshot</text>
  <rect x="316" y="148" width="210" height="84" rx="12" fill="#eef9fc"/>
  <text x="336" y="178" fill="#0d7d8f" font-size="14" font-family="Arial, sans-serif">Monthly Recurring</text>
  <text x="336" y="214" fill="#0a8ca3" font-size="30" font-family="Arial, sans-serif" font-weight="700">$124,200</text>
  <rect x="542" y="148" width="210" height="84" rx="12" fill="#eef9fc"/>
  <text x="562" y="178" fill="#0d7d8f" font-size="14" font-family="Arial, sans-serif">Active Trials</text>
  <text x="562" y="214" fill="#0a8ca3" font-size="30" font-family="Arial, sans-serif" font-weight="700">1,984</text>
  <rect x="768" y="148" width="210" height="84" rx="12" fill="#eef9fc"/>
  <text x="788" y="178" fill="#0d7d8f" font-size="14" font-family="Arial, sans-serif">Conversion Rate</text>
  <text x="788" y="214" fill="#0a8ca3" font-size="30" font-family="Arial, sans-serif" font-weight="700">8.7%</text>
  <rect x="994" y="148" width="226" height="84" rx="12" fill="#eef9fc"/>
  <text x="1014" y="178" fill="#0d7d8f" font-size="14" font-family="Arial, sans-serif">Churn</text>
  <text x="1014" y="214" fill="#0a8ca3" font-size="30" font-family="Arial, sans-serif" font-weight="700">1.2%</text>

  <rect x="280" y="280" width="640" height="496" rx="16" fill="#ffffff" stroke="#d5eef3"/>
  <text x="316" y="322" fill="#0c6c7d" font-size="20" font-family="Arial, sans-serif" font-weight="700">Growth Trend</text>
  <polyline points="330,648 390,620 450,602 510,552 570,530 630,492 690,472 750,426 810,396 870,352" fill="none" stroke="#0ea5b8" stroke-width="8" stroke-linecap="round" stroke-linejoin="round"/>
  <polyline points="330,648 390,620 450,602 510,552 570,530 630,492 690,472 750,426 810,396 870,352 870,732 330,732" fill="#0ea5b8" opacity="0.15"/>
  <line x1="330" y1="700" x2="870" y2="700" stroke="#d9f0f4" stroke-width="2"/>
  <line x1="330" y1="620" x2="870" y2="620" stroke="#d9f0f4" stroke-width="2"/>
  <line x1="330" y1="540" x2="870" y2="540" stroke="#d9f0f4" stroke-width="2"/>
  <line x1="330" y1="460" x2="870" y2="460" stroke="#d9f0f4" stroke-width="2"/>

  <rect x="940" y="280" width="316" height="496" rx="16" fill="#ffffff" stroke="#d5eef3"/>
  <text x="972" y="322" fill="#0c6c7d" font-size="20" font-family="Arial, sans-serif" font-weight="700">Live Activity</text>
  <rect x="968" y="346" width="260" height="80" rx="12" fill="#eef9fc"/>
  <text x="992" y="384" fill="#0d7d8f" font-size="16" font-family="Arial, sans-serif">Acme Labs upgraded to Pro</text>
  <text x="992" y="408" fill="#1298ad" font-size="14" font-family="Arial, sans-serif">2 minutes ago</text>
  <rect x="968" y="438" width="260" height="80" rx="12" fill="#eef9fc"/>
  <text x="992" y="476" fill="#0d7d8f" font-size="16" font-family="Arial, sans-serif">Northway added 42 seats</text>
  <text x="992" y="500" fill="#1298ad" font-size="14" font-family="Arial, sans-serif">12 minutes ago</text>
  <rect x="968" y="530" width="260" height="80" rx="12" fill="#eef9fc"/>
  <text x="992" y="568" fill="#0d7d8f" font-size="16" font-family="Arial, sans-serif">Payment batch settled</text>
  <text x="992" y="592" fill="#1298ad" font-size="14" font-family="Arial, sans-serif">28 minutes ago</text>
</svg>